<?xml version="1.0" encoding="UTF-8" standalone="no"?><!-- Generator: Gravit.io --><svg xmlns="http://www.w3.org/2000/svg" xmlns:xlink="http://www.w3.org/1999/xlink" style="isolation:isolate" viewBox="0 0 600 600" width="600pt" height="600pt"><defs><clipPath id="_clipPath_ZnJOUHeoNuK5gMlgmgmKK0T6CFFG3tTk"><rect width="600" height="600"/></clipPath></defs><g clip-path="url(#_clipPath_ZnJOUHeoNuK5gMlgmgmKK0T6CFFG3tTk)"><g style="mix-blend-mode:darken;"><mask id="_mask_8VUY8DVe8LqVS6nVieXE3TXmh10vZvO4"><rect x="150" y="151" width="100" height="100" fill="white" style="mix-blend-mode:color-burn;" stroke="none"/></mask><rect x="150" y="151" width="100" height="100" transform="matrix(1,0,0,1,0,0)" fill="rgb(0,220,255)" style="mix-blend-mode:color-burn;"/><rect x="150" y="151" width="100" height="100" transform="matrix(1,0,0,1,0,0)" fill="rgb(0,220,255)" style=":undefined;" mask="url(#_mask_8VUY8DVe8LqVS6nVieXE3TXmh10vZvO4)" vector-effect="non-scaling-stroke" stroke-width="2" stroke="rgb(0,0,0)" stroke-linejoin="miter" stroke-linecap="square" stroke-miterlimit="2"/></g><path d=" M 180 132 L 190 130 C 192.521 139.416 194.198 146.093 195 150 L 189 150 L 180 132 Z " fill="rgb(0,220,255)" vector-effect="non-scaling-stroke" stroke-width="1" stroke="rgb(0,0,0)" stroke-linejoin="miter" stroke-linecap="square" stroke-miterlimit="3"/><path d=" M 207 150 L 215 150 L 223 120 L 214 117 L 207 150 Z " fill="rgb(0,220,255)" vector-effect="non-scaling-stroke" stroke-width="1" stroke="rgb(0,0,0)" stroke-linejoin="miter" stroke-linecap="square" stroke-miterlimit="3"/><path d=" M 150 200 L 110 196 L 110 183 L 150 193 L 150 193 L 150 193 L 150 200 Z " fill="rgb(0,220,255)" vector-effect="non-scaling-stroke" stroke-width="1" stroke="rgb(0,0,0)" stroke-linejoin="miter" stroke-linecap="square" stroke-miterlimit="3"/><path d=" M 123 205 L 150 208 L 150 215 L 124 216 L 123 205 Z " fill="rgb(0,220,255)" vector-effect="non-scaling-stroke" stroke-width="1" stroke="rgb(0,0,0)" stroke-linejoin="miter" stroke-linecap="square" stroke-miterlimit="3"/><mask id="_mask_W8SOT5s8d1q4NYuPrRnt3DjOAK4GUDEF"><circle vector-effect="non-scaling-stroke" cx="185" cy="200" r="5" fill="white" stroke="none"/></mask><circle vector-effect="non-scaling-stroke" cx="185" cy="200" r="5" fill="rgb(235,235,235)"/><circle vector-effect="non-scaling-stroke" cx="185" cy="200" r="5" fill="rgb(235,235,235)" mask="url(#_mask_W8SOT5s8d1q4NYuPrRnt3DjOAK4GUDEF)" stroke-width="2" stroke="rgb(0,0,0)" stroke-linejoin="miter" stroke-linecap="square" stroke-miterlimit="3"/><mask id="_mask_5Yc68Htg0orCdPOlaGKEsgxO6xfEODBx"><circle vector-effect="non-scaling-stroke" cx="215" cy="200" r="5" fill="white" stroke="none"/></mask><circle vector-effect="non-scaling-stroke" cx="215" cy="200" r="5" fill="rgb(235,235,235)"/><circle vector-effect="non-scaling-stroke" cx="215" cy="200" r="5" fill="rgb(235,235,235)" mask="url(#_mask_5Yc68Htg0orCdPOlaGKEsgxO6xfEODBx)" stroke-width="2" stroke="rgb(0,0,0)" stroke-linejoin="miter" stroke-linecap="square" stroke-miterlimit="3"/><path d=" M 180 215 L 195 203 L 247 215 L 180 215 Z " fill="rgb(255,100,0)" vector-effect="non-scaling-stroke" stroke-width="1" stroke="rgb(0,0,0)" stroke-linejoin="miter" stroke-linecap="square" stroke-miterlimit="3"/><path d=" M 180 215 L 195 225 L 230 215 L 180 215 Z " fill="rgb(255,100,0)" vector-effect="non-scaling-stroke" stroke-width="1" stroke="rgb(0,0,0)" stroke-linejoin="miter" stroke-linecap="square" stroke-miterlimit="3"/><path d=" M 165 181 L 195 190 L 193 195 L 165 190 L 165 181 Z " fill="rgb(255,30,0)" vector-effect="non-scaling-stroke" stroke-width="1" stroke="rgb(0,0,0)" stroke-linejoin="miter" stroke-linecap="square" stroke-miterlimit="3"/><path d=" M 210 195 L 245 186 L 244 180 L 209 190 L 210 195 Z " fill="rgb(255,30,0)" vector-effect="non-scaling-stroke" stroke-width="1" stroke="rgb(0,0,0)" stroke-linejoin="miter" stroke-linecap="square" stroke-miterlimit="3"/><circle vector-effect="non-scaling-stroke" cx="187" cy="200" r="1" fill="rgb(0,0,0)"/><circle vector-effect="non-scaling-stroke" cx="214" cy="199" r="1" fill="rgb(0,0,0)"/><g clip-path="url(#_clipPath_4kVCZlOGYk8wh3rGUtqwILCItTcOd0t9)"><text transform="matrix(1,0,0,1,245,350.377)" style="font-family:'Open Sans';font-weight:400;font-size:20px;font-style:normal;fill:#000000;stroke:none;">Cataraga Dumitru</text><text transform="matrix(1,0,0,1,245,377.613)" style="font-family:'Open Sans';font-weight:400;font-size:20px;font-style:normal;fill:#000000;stroke:none;">gr. EA-231</text></g><defs><clipPath id="_clipPath_4kVCZlOGYk8wh3rGUtqwILCItTcOd0t9"><rect x="0" y="0" width="228" height="92" transform="matrix(1,0,0,1,245,329)"/></clipPath></defs></g></svg>